# xmcd
#
# Track frame offsets: 
#        150
#        12595
#        24307
#        43977
#        57565
#        76207
#        93535
#        109477
#        131537
#        146627
#
# Disc length: 2179 seconds
#
# Revision: 0
# Processed by: cddbd v1.5.1PL0 Copyright (c) Steve Scherf et al.
# Submitted via: ExactAudioCopy v0.90b4
#
DISCID=8d08810a
DTITLE=Tecia McKenna - Off The Beaten Path
DYEAR=1997
DGENRE=Country
TTITLE0=Ocean Of Love
TTITLE1=I Should Have Waited For You
TTITLE2=The Horses Knew The Way Home
TTITLE3=He Ain't Coming
TTITLE4=Off The Beaten Path
TTITLE5=Sweet Perfume
TTITLE6=This Love
TTITLE7=Before The Storm/When The Storm Is Over
TTITLE8=Goodbye's What You Got
TTITLE9=Last Song
EXTD=
EXTT0=
EXTT1=
EXTT2=
EXTT3=
EXTT4=
EXTT5=
EXTT6=
EXTT7=
EXTT8=
EXTT9=
PLAYORDER=
